<svg width="180" height="66" viewBox="0 0 180 66" fill="none" xmlns="http://www.w3.org/2000/svg">
<rect width="180" height="66" rx="33" fill="#414141"/>
<path d="M71.7344 21.25V24.375H61.1562V44H57.25V21.25H71.7344ZM59.9688 29.9844H65.6875C67.4167 29.9844 68.8958 30.276 70.125 30.8594C71.3542 31.4323 72.2917 32.2396 72.9375 33.2812C73.5833 34.3229 73.9062 35.5365 73.9062 36.9219C73.9062 37.9635 73.724 38.9167 73.3594 39.7812C72.9948 40.6458 72.4583 41.3958 71.75 42.0312C71.0417 42.6562 70.1771 43.1406 69.1562 43.4844C68.1458 43.8281 66.9896 44 65.6875 44H57.25V21.25H61.1875V40.8906H65.6875C66.6771 40.8906 67.4896 40.7083 68.125 40.3438C68.7604 39.9688 69.2292 39.4792 69.5312 38.875C69.8438 38.2708 70 37.6094 70 36.8906C70 36.1927 69.8438 35.5573 69.5312 34.9844C69.2292 34.4115 68.7604 33.9531 68.125 33.6094C67.4896 33.2656 66.6771 33.0938 65.6875 33.0938H59.9688V29.9844ZM92.375 31.0781V34.2031H82.8594V31.0781H92.375ZM76.6875 36.5938H80.5938C80.7083 37.5938 80.9427 38.4375 81.2969 39.125C81.6615 39.8125 82.1875 40.3333 82.875 40.6875C83.5729 41.0417 84.4844 41.2188 85.6094 41.2188C86.5156 41.2188 87.2969 41.0365 87.9531 40.6719C88.6198 40.3073 89.1667 39.7917 89.5938 39.125C90.0208 38.4479 90.3385 37.6458 90.5469 36.7188C90.7552 35.7812 90.8594 34.7344 90.8594 33.5781V31.6719C90.8594 30.7031 90.7865 29.8229 90.6406 29.0312C90.4948 28.2292 90.2708 27.5208 89.9688 26.9062C89.6771 26.2917 89.3125 25.776 88.875 25.3594C88.4479 24.9323 87.9479 24.6094 87.375 24.3906C86.8021 24.1719 86.1615 24.0625 85.4531 24.0625C84.3594 24.0625 83.474 24.25 82.7969 24.625C82.1198 24.9896 81.6094 25.526 81.2656 26.2344C80.9219 26.9323 80.6927 27.776 80.5781 28.7656H76.6719C76.8281 27.2344 77.2552 25.8802 77.9531 24.7031C78.651 23.526 79.6198 22.6042 80.8594 21.9375C82.1094 21.2708 83.6406 20.9375 85.4531 20.9375C86.8802 20.9375 88.1615 21.1927 89.2969 21.7031C90.4427 22.2031 91.4219 22.9271 92.2344 23.875C93.0469 24.8125 93.6667 25.9427 94.0938 27.2656C94.5312 28.5885 94.75 30.0677 94.75 31.7031V33.5781C94.75 35.2135 94.5365 36.6927 94.1094 38.0156C93.6927 39.3385 93.0833 40.4688 92.2812 41.4062C91.4792 42.3438 90.5156 43.0625 89.3906 43.5625C88.2656 44.0625 87.0052 44.3125 85.6094 44.3125C83.7656 44.3125 82.2031 43.9844 80.9219 43.3281C79.651 42.6615 78.6615 41.7448 77.9531 40.5781C77.2448 39.4115 76.8229 38.0833 76.6875 36.5938ZM100.156 21.25H103.656L110.234 38.7969L116.797 21.25H120.297L111.609 44H108.828L100.156 21.25ZM98.5625 21.25H101.891L102.469 36.4375V44H98.5625V21.25ZM118.562 21.25H121.906V44H117.984V36.4375L118.562 21.25Z" fill="white"/>
</svg>
