<svg width="170" height="66" viewBox="0 0 170 66" fill="none" xmlns="http://www.w3.org/2000/svg">
<rect width="170" height="66" rx="33" fill="#414141"/>
<path d="M70.75 36.5938H74.6562C74.5312 38.0833 74.1146 39.4115 73.4062 40.5781C72.6979 41.7344 71.7031 42.6458 70.4219 43.3125C69.1406 43.9792 67.5833 44.3125 65.75 44.3125C64.3438 44.3125 63.0781 44.0625 61.9531 43.5625C60.8281 43.0521 59.8646 42.3333 59.0625 41.4062C58.2604 40.4688 57.6458 39.3385 57.2188 38.0156C56.8021 36.6927 56.5938 35.2135 56.5938 33.5781V31.6875C56.5938 30.0521 56.8073 28.5729 57.2344 27.25C57.6719 25.9271 58.2969 24.7969 59.1094 23.8594C59.9219 22.9115 60.8958 22.1875 62.0312 21.6875C63.1771 21.1875 64.4635 20.9375 65.8906 20.9375C67.7031 20.9375 69.2344 21.2708 70.4844 21.9375C71.7344 22.6042 72.7031 23.526 73.3906 24.7031C74.0885 25.8802 74.5156 27.2292 74.6719 28.75H70.7656C70.6615 27.7708 70.4323 26.9323 70.0781 26.2344C69.7344 25.5365 69.224 25.0052 68.5469 24.6406C67.8698 24.2656 66.9844 24.0781 65.8906 24.0781C64.9948 24.0781 64.2135 24.2448 63.5469 24.5781C62.8802 24.9115 62.3229 25.401 61.875 26.0469C61.4271 26.6927 61.0885 27.4896 60.8594 28.4375C60.6406 29.375 60.5312 30.4479 60.5312 31.6562V33.5781C60.5312 34.724 60.6302 35.7656 60.8281 36.7031C61.0365 37.6302 61.349 38.4271 61.7656 39.0938C62.1927 39.7604 62.7344 40.276 63.3906 40.6406C64.0469 41.0052 64.8333 41.1875 65.75 41.1875C66.8646 41.1875 67.7656 41.0104 68.4531 40.6562C69.151 40.3021 69.6771 39.7865 70.0312 39.1094C70.3958 38.4219 70.6354 37.5833 70.75 36.5938ZM90.1875 38.1406C90.1875 37.6719 90.1146 37.2552 89.9688 36.8906C89.8333 36.526 89.5885 36.1927 89.2344 35.8906C88.8802 35.5885 88.3802 35.2969 87.7344 35.0156C87.099 34.724 86.2865 34.4271 85.2969 34.125C84.2135 33.7917 83.2135 33.4219 82.2969 33.0156C81.3906 32.599 80.599 32.1198 79.9219 31.5781C79.2448 31.026 78.7188 30.3958 78.3438 29.6875C77.9688 28.9688 77.7812 28.1406 77.7812 27.2031C77.7812 26.276 77.974 25.4323 78.3594 24.6719C78.7552 23.9115 79.3125 23.2552 80.0312 22.7031C80.7604 22.1406 81.6198 21.7083 82.6094 21.4062C83.599 21.0938 84.6927 20.9375 85.8906 20.9375C87.5781 20.9375 89.0312 21.25 90.25 21.875C91.4792 22.5 92.4219 23.3385 93.0781 24.3906C93.7448 25.4427 94.0781 26.6042 94.0781 27.875H90.1875C90.1875 27.125 90.026 26.4635 89.7031 25.8906C89.3906 25.3073 88.9115 24.849 88.2656 24.5156C87.6302 24.1823 86.8229 24.0156 85.8438 24.0156C84.9167 24.0156 84.1458 24.1562 83.5312 24.4375C82.9167 24.7188 82.4583 25.099 82.1562 25.5781C81.8542 26.0573 81.7031 26.599 81.7031 27.2031C81.7031 27.6302 81.8021 28.0208 82 28.375C82.1979 28.7188 82.5 29.0417 82.9062 29.3438C83.3125 29.6354 83.8229 29.9115 84.4375 30.1719C85.0521 30.4323 85.776 30.6823 86.6094 30.9219C87.8698 31.2969 88.9688 31.7135 89.9062 32.1719C90.8438 32.6198 91.625 33.1302 92.25 33.7031C92.875 34.276 93.3438 34.9271 93.6562 35.6562C93.9688 36.375 94.125 37.1927 94.125 38.1094C94.125 39.0677 93.9323 39.9323 93.5469 40.7031C93.1615 41.4635 92.6094 42.1146 91.8906 42.6562C91.1823 43.1875 90.3281 43.599 89.3281 43.8906C88.3385 44.1719 87.2344 44.3125 86.0156 44.3125C84.9219 44.3125 83.8438 44.1667 82.7812 43.875C81.7292 43.5833 80.7708 43.1406 79.9062 42.5469C79.0417 41.9427 78.3542 41.1927 77.8438 40.2969C77.3333 39.3906 77.0781 38.3333 77.0781 37.125H81C81 37.8646 81.125 38.4948 81.375 39.0156C81.6354 39.5365 81.9948 39.9635 82.4531 40.2969C82.9115 40.6198 83.4427 40.8594 84.0469 41.0156C84.6615 41.1719 85.3177 41.25 86.0156 41.25C86.9323 41.25 87.6979 41.1198 88.3125 40.8594C88.9375 40.599 89.4062 40.2344 89.7188 39.7656C90.0312 39.2969 90.1875 38.7552 90.1875 38.1406ZM109.562 38.1406C109.562 37.6719 109.49 37.2552 109.344 36.8906C109.208 36.526 108.964 36.1927 108.609 35.8906C108.255 35.5885 107.755 35.2969 107.109 35.0156C106.474 34.724 105.661 34.4271 104.672 34.125C103.589 33.7917 102.589 33.4219 101.672 33.0156C100.766 32.599 99.974 32.1198 99.2969 31.5781C98.6198 31.026 98.0938 30.3958 97.7188 29.6875C97.3438 28.9688 97.1562 28.1406 97.1562 27.2031C97.1562 26.276 97.349 25.4323 97.7344 24.6719C98.1302 23.9115 98.6875 23.2552 99.4062 22.7031C100.135 22.1406 100.995 21.7083 101.984 21.4062C102.974 21.0938 104.068 20.9375 105.266 20.9375C106.953 20.9375 108.406 21.25 109.625 21.875C110.854 22.5 111.797 23.3385 112.453 24.3906C113.12 25.4427 113.453 26.6042 113.453 27.875H109.562C109.562 27.125 109.401 26.4635 109.078 25.8906C108.766 25.3073 108.286 24.849 107.641 24.5156C107.005 24.1823 106.198 24.0156 105.219 24.0156C104.292 24.0156 103.521 24.1562 102.906 24.4375C102.292 24.7188 101.833 25.099 101.531 25.5781C101.229 26.0573 101.078 26.599 101.078 27.2031C101.078 27.6302 101.177 28.0208 101.375 28.375C101.573 28.7188 101.875 29.0417 102.281 29.3438C102.688 29.6354 103.198 29.9115 103.812 30.1719C104.427 30.4323 105.151 30.6823 105.984 30.9219C107.245 31.2969 108.344 31.7135 109.281 32.1719C110.219 32.6198 111 33.1302 111.625 33.7031C112.25 34.276 112.719 34.9271 113.031 35.6562C113.344 36.375 113.5 37.1927 113.5 38.1094C113.5 39.0677 113.307 39.9323 112.922 40.7031C112.536 41.4635 111.984 42.1146 111.266 42.6562C110.557 43.1875 109.703 43.599 108.703 43.8906C107.714 44.1719 106.609 44.3125 105.391 44.3125C104.297 44.3125 103.219 44.1667 102.156 43.875C101.104 43.5833 100.146 43.1406 99.2812 42.5469C98.4167 41.9427 97.7292 41.1927 97.2188 40.2969C96.7083 39.3906 96.4531 38.3333 96.4531 37.125H100.375C100.375 37.8646 100.5 38.4948 100.75 39.0156C101.01 39.5365 101.37 39.9635 101.828 40.2969C102.286 40.6198 102.818 40.8594 103.422 41.0156C104.036 41.1719 104.693 41.25 105.391 41.25C106.307 41.25 107.073 41.1198 107.688 40.8594C108.312 40.599 108.781 40.2344 109.094 39.7656C109.406 39.2969 109.562 38.7552 109.562 38.1406Z" fill="white"/>
</svg>
