<svg width="221" height="66" viewBox="0 0 221 66" fill="none" xmlns="http://www.w3.org/2000/svg">
<rect width="221" height="66" rx="33" fill="#414141"/>
<path d="M61.2344 21.25V44H57.3125V21.25H61.2344ZM70.5156 31.2031V34.3125H60.2344V31.2031H70.5156ZM71.8125 21.25V24.375H60.2344V21.25H71.8125ZM78.5938 20V44H74.8125V20H78.5938ZM90.1719 44.3125C88.9219 44.3125 87.7917 44.1094 86.7812 43.7031C85.7812 43.2865 84.9271 42.7083 84.2188 41.9688C83.5208 41.2292 82.9844 40.3594 82.6094 39.3594C82.2344 38.3594 82.0469 37.2812 82.0469 36.125V35.5C82.0469 34.1771 82.2396 32.9792 82.625 31.9062C83.0104 30.8333 83.5469 29.9167 84.2344 29.1562C84.9219 28.3854 85.7344 27.7969 86.6719 27.3906C87.6094 26.9844 88.625 26.7812 89.7188 26.7812C90.9271 26.7812 91.9844 26.9844 92.8906 27.3906C93.7969 27.7969 94.5469 28.3698 95.1406 29.1094C95.7448 29.8385 96.1927 30.7083 96.4844 31.7188C96.7865 32.7292 96.9375 33.8438 96.9375 35.0625V36.6719H83.875V33.9688H93.2188V33.6719C93.1979 32.9948 93.0625 32.3594 92.8125 31.7656C92.5729 31.1719 92.2031 30.6927 91.7031 30.3281C91.2031 29.9635 90.5365 29.7812 89.7031 29.7812C89.0781 29.7812 88.5208 29.9167 88.0312 30.1875C87.5521 30.4479 87.151 30.8281 86.8281 31.3281C86.5052 31.8281 86.2552 32.4323 86.0781 33.1406C85.9115 33.8385 85.8281 34.625 85.8281 35.5V36.125C85.8281 36.8646 85.9271 37.5521 86.125 38.1875C86.3333 38.8125 86.6354 39.3594 87.0312 39.8281C87.4271 40.2969 87.9062 40.6667 88.4688 40.9375C89.0312 41.1979 89.6719 41.3281 90.3906 41.3281C91.2969 41.3281 92.1042 41.1458 92.8125 40.7812C93.5208 40.4167 94.1354 39.901 94.6562 39.2344L96.6406 41.1562C96.276 41.6875 95.8021 42.1979 95.2188 42.6875C94.6354 43.1667 93.9219 43.5573 93.0781 43.8594C92.2448 44.1615 91.276 44.3125 90.1719 44.3125ZM102.75 27.0938L105.969 32.7031L109.25 27.0938H113.391L108.266 35.3906L113.594 44H109.453L106.016 38.1562L102.578 44H98.4219L103.734 35.3906L98.625 27.0938H102.75ZM115.984 20H119.75V40.3906L119.391 44H115.984V20ZM130.781 35.3906V35.7188C130.781 36.9688 130.641 38.1198 130.359 39.1719C130.089 40.2135 129.672 41.1198 129.109 41.8906C128.557 42.6615 127.87 43.2604 127.047 43.6875C126.234 44.1042 125.292 44.3125 124.219 44.3125C123.167 44.3125 122.25 44.1146 121.469 43.7188C120.688 43.3229 120.031 42.7604 119.5 42.0312C118.979 41.3021 118.557 40.4323 118.234 39.4219C117.911 38.4115 117.682 37.2969 117.547 36.0781V35.0312C117.682 33.8021 117.911 32.6875 118.234 31.6875C118.557 30.6771 118.979 29.8073 119.5 29.0781C120.031 28.3385 120.682 27.7708 121.453 27.375C122.234 26.9792 123.146 26.7812 124.188 26.7812C125.271 26.7812 126.224 26.9896 127.047 27.4062C127.88 27.8229 128.573 28.4167 129.125 29.1875C129.677 29.9479 130.089 30.8542 130.359 31.9062C130.641 32.9583 130.781 34.1198 130.781 35.3906ZM127.016 35.7188V35.3906C127.016 34.6302 126.953 33.9167 126.828 33.25C126.703 32.5729 126.495 31.9792 126.203 31.4688C125.922 30.9583 125.536 30.5573 125.047 30.2656C124.568 29.9635 123.969 29.8125 123.25 29.8125C122.583 29.8125 122.01 29.9271 121.531 30.1562C121.052 30.3854 120.651 30.6979 120.328 31.0938C120.005 31.4896 119.75 31.9479 119.562 32.4688C119.385 32.9896 119.266 33.5521 119.203 34.1562V36.9844C119.297 37.7656 119.495 38.4844 119.797 39.1406C120.109 39.7865 120.547 40.3073 121.109 40.7031C121.672 41.0885 122.396 41.2812 123.281 41.2812C123.979 41.2812 124.568 41.1406 125.047 40.8594C125.526 40.5781 125.906 40.1875 126.188 39.6875C126.479 39.1771 126.688 38.5833 126.812 37.9062C126.948 37.2292 127.016 36.5 127.016 35.7188ZM133.25 35.7344V35.375C133.25 34.1562 133.427 33.026 133.781 31.9844C134.135 30.9323 134.646 30.0208 135.312 29.25C135.99 28.4688 136.812 27.8646 137.781 27.4375C138.76 27 139.865 26.7812 141.094 26.7812C142.333 26.7812 143.438 27 144.406 27.4375C145.385 27.8646 146.214 28.4688 146.891 29.25C147.568 30.0208 148.083 30.9323 148.438 31.9844C148.792 33.026 148.969 34.1562 148.969 35.375V35.7344C148.969 36.9531 148.792 38.0833 148.438 39.125C148.083 40.1667 147.568 41.0781 146.891 41.8594C146.214 42.6302 145.391 43.2344 144.422 43.6719C143.453 44.099 142.354 44.3125 141.125 44.3125C139.885 44.3125 138.776 44.099 137.797 43.6719C136.828 43.2344 136.005 42.6302 135.328 41.8594C134.651 41.0781 134.135 40.1667 133.781 39.125C133.427 38.0833 133.25 36.9531 133.25 35.7344ZM137.016 35.375V35.7344C137.016 36.4948 137.094 37.2135 137.25 37.8906C137.406 38.5677 137.651 39.1615 137.984 39.6719C138.318 40.1823 138.745 40.5833 139.266 40.875C139.786 41.1667 140.406 41.3125 141.125 41.3125C141.823 41.3125 142.427 41.1667 142.938 40.875C143.458 40.5833 143.885 40.1823 144.219 39.6719C144.552 39.1615 144.797 38.5677 144.953 37.8906C145.12 37.2135 145.203 36.4948 145.203 35.7344V35.375C145.203 34.625 145.12 33.9167 144.953 33.25C144.797 32.5729 144.547 31.974 144.203 31.4531C143.87 30.9323 143.443 30.526 142.922 30.2344C142.411 29.9323 141.802 29.7812 141.094 29.7812C140.385 29.7812 139.771 29.9323 139.25 30.2344C138.74 30.526 138.318 30.9323 137.984 31.4531C137.651 31.974 137.406 32.5729 137.25 33.25C137.094 33.9167 137.016 34.625 137.016 35.375ZM154.656 27.0938L157.875 32.7031L161.156 27.0938H165.297L160.172 35.3906L165.5 44H161.359L157.922 38.1562L154.484 44H150.328L155.641 35.3906L150.531 27.0938H154.656Z" fill="white"/>
</svg>
