<svg width="198" height="66" viewBox="0 0 198 66" fill="none" xmlns="http://www.w3.org/2000/svg">
<rect width="198" height="66" rx="33" fill="#414141"/>
<path d="M72.3438 30.75V33.8594H60.2656V30.75H72.3438ZM61.2344 21.25V44H57.3125V21.25H61.2344ZM75.3594 21.25V44H71.4531V21.25H75.3594ZM88.9219 21.25V44H85.0312V21.25H88.9219ZM96.0625 21.25V24.375H77.9531V21.25H96.0625ZM100.656 21.25H104.156L110.734 38.7969L117.297 21.25H120.797L112.109 44H109.328L100.656 21.25ZM99.0625 21.25H102.391L102.969 36.4375V44H99.0625V21.25ZM119.062 21.25H122.406V44H118.484V36.4375L119.062 21.25ZM141.312 40.8906V44H129.891V40.8906H141.312ZM130.984 21.25V44H127.062V21.25H130.984Z" fill="white"/>
</svg>
