<svg width="181" height="66" viewBox="0 0 181 66" fill="none" xmlns="http://www.w3.org/2000/svg">
<rect width="181" height="66" rx="33" fill="#414141"/>
<path d="M69.2812 38.1406C69.2812 37.6719 69.2083 37.2552 69.0625 36.8906C68.9271 36.526 68.6823 36.1927 68.3281 35.8906C67.974 35.5885 67.474 35.2969 66.8281 35.0156C66.1927 34.724 65.3802 34.4271 64.3906 34.125C63.3073 33.7917 62.3073 33.4219 61.3906 33.0156C60.4844 32.599 59.6927 32.1198 59.0156 31.5781C58.3385 31.026 57.8125 30.3958 57.4375 29.6875C57.0625 28.9688 56.875 28.1406 56.875 27.2031C56.875 26.276 57.0677 25.4323 57.4531 24.6719C57.849 23.9115 58.4062 23.2552 59.125 22.7031C59.8542 22.1406 60.7135 21.7083 61.7031 21.4062C62.6927 21.0938 63.7865 20.9375 64.9844 20.9375C66.6719 20.9375 68.125 21.25 69.3438 21.875C70.5729 22.5 71.5156 23.3385 72.1719 24.3906C72.8385 25.4427 73.1719 26.6042 73.1719 27.875H69.2812C69.2812 27.125 69.1198 26.4635 68.7969 25.8906C68.4844 25.3073 68.0052 24.849 67.3594 24.5156C66.724 24.1823 65.9167 24.0156 64.9375 24.0156C64.0104 24.0156 63.2396 24.1562 62.625 24.4375C62.0104 24.7188 61.5521 25.099 61.25 25.5781C60.9479 26.0573 60.7969 26.599 60.7969 27.2031C60.7969 27.6302 60.8958 28.0208 61.0938 28.375C61.2917 28.7188 61.5938 29.0417 62 29.3438C62.4062 29.6354 62.9167 29.9115 63.5312 30.1719C64.1458 30.4323 64.8698 30.6823 65.7031 30.9219C66.9635 31.2969 68.0625 31.7135 69 32.1719C69.9375 32.6198 70.7188 33.1302 71.3438 33.7031C71.9688 34.276 72.4375 34.9271 72.75 35.6562C73.0625 36.375 73.2188 37.1927 73.2188 38.1094C73.2188 39.0677 73.026 39.9323 72.6406 40.7031C72.2552 41.4635 71.7031 42.1146 70.9844 42.6562C70.276 43.1875 69.4219 43.599 68.4219 43.8906C67.4323 44.1719 66.3281 44.3125 65.1094 44.3125C64.0156 44.3125 62.9375 44.1667 61.875 43.875C60.8229 43.5833 59.8646 43.1406 59 42.5469C58.1354 41.9427 57.4479 41.1927 56.9375 40.2969C56.4271 39.3906 56.1719 38.3333 56.1719 37.125H60.0938C60.0938 37.8646 60.2188 38.4948 60.4688 39.0156C60.7292 39.5365 61.0885 39.9635 61.5469 40.2969C62.0052 40.6198 62.5365 40.8594 63.1406 41.0156C63.7552 41.1719 64.4115 41.25 65.1094 41.25C66.026 41.25 66.7917 41.1198 67.4062 40.8594C68.0312 40.599 68.5 40.2344 68.8125 39.7656C69.125 39.2969 69.2812 38.7552 69.2812 38.1406ZM85.8438 40.6094V32.5469C85.8438 31.9427 85.7344 31.4219 85.5156 30.9844C85.2969 30.5469 84.9635 30.2083 84.5156 29.9688C84.0781 29.7292 83.526 29.6094 82.8594 29.6094C82.2448 29.6094 81.7135 29.7135 81.2656 29.9219C80.8177 30.1302 80.4688 30.4115 80.2188 30.7656C79.9688 31.1198 79.8438 31.5208 79.8438 31.9688H76.0938C76.0938 31.3021 76.2552 30.6562 76.5781 30.0312C76.901 29.4062 77.3698 28.849 77.9844 28.3594C78.599 27.8698 79.3333 27.4844 80.1875 27.2031C81.0417 26.9219 82 26.7812 83.0625 26.7812C84.3333 26.7812 85.4583 26.9948 86.4375 27.4219C87.4271 27.849 88.2031 28.4948 88.7656 29.3594C89.3385 30.2135 89.625 31.2865 89.625 32.5781V40.0938C89.625 40.8646 89.6771 41.5573 89.7812 42.1719C89.8958 42.776 90.0573 43.3021 90.2656 43.75V44H86.4062C86.2292 43.5938 86.0885 43.0781 85.9844 42.4531C85.8906 41.8177 85.8438 41.2031 85.8438 40.6094ZM86.3906 33.7188L86.4219 36.0469H83.7188C83.0208 36.0469 82.4062 36.1146 81.875 36.25C81.3438 36.375 80.901 36.5625 80.5469 36.8125C80.1927 37.0625 79.9271 37.3646 79.75 37.7188C79.5729 38.0729 79.4844 38.474 79.4844 38.9219C79.4844 39.3698 79.5885 39.7812 79.7969 40.1562C80.0052 40.5208 80.3073 40.8073 80.7031 41.0156C81.1094 41.224 81.599 41.3281 82.1719 41.3281C82.9427 41.3281 83.6146 41.1719 84.1875 40.8594C84.7708 40.5365 85.2292 40.1458 85.5625 39.6875C85.8958 39.2188 86.0729 38.776 86.0938 38.3594L87.3125 40.0312C87.1875 40.4583 86.974 40.9167 86.6719 41.4062C86.3698 41.8958 85.974 42.3646 85.4844 42.8125C85.0052 43.25 84.4271 43.6094 83.75 43.8906C83.0833 44.1719 82.3125 44.3125 81.4375 44.3125C80.3333 44.3125 79.349 44.0938 78.4844 43.6562C77.6198 43.2083 76.9427 42.6094 76.4531 41.8594C75.9635 41.099 75.7188 40.2396 75.7188 39.2812C75.7188 38.3854 75.8854 37.5938 76.2188 36.9062C76.5625 36.2083 77.0625 35.625 77.7188 35.1562C78.3854 34.6875 79.1979 34.3333 80.1562 34.0938C81.1146 33.8438 82.2083 33.7188 83.4375 33.7188H86.3906ZM103.094 40.6094V32.5469C103.094 31.9427 102.984 31.4219 102.766 30.9844C102.547 30.5469 102.214 30.2083 101.766 29.9688C101.328 29.7292 100.776 29.6094 100.109 29.6094C99.4948 29.6094 98.9635 29.7135 98.5156 29.9219C98.0677 30.1302 97.7188 30.4115 97.4688 30.7656C97.2188 31.1198 97.0938 31.5208 97.0938 31.9688H93.3438C93.3438 31.3021 93.5052 30.6562 93.8281 30.0312C94.151 29.4062 94.6198 28.849 95.2344 28.3594C95.849 27.8698 96.5833 27.4844 97.4375 27.2031C98.2917 26.9219 99.25 26.7812 100.312 26.7812C101.583 26.7812 102.708 26.9948 103.688 27.4219C104.677 27.849 105.453 28.4948 106.016 29.3594C106.589 30.2135 106.875 31.2865 106.875 32.5781V40.0938C106.875 40.8646 106.927 41.5573 107.031 42.1719C107.146 42.776 107.307 43.3021 107.516 43.75V44H103.656C103.479 43.5938 103.339 43.0781 103.234 42.4531C103.141 41.8177 103.094 41.2031 103.094 40.6094ZM103.641 33.7188L103.672 36.0469H100.969C100.271 36.0469 99.6562 36.1146 99.125 36.25C98.5938 36.375 98.151 36.5625 97.7969 36.8125C97.4427 37.0625 97.1771 37.3646 97 37.7188C96.8229 38.0729 96.7344 38.474 96.7344 38.9219C96.7344 39.3698 96.8385 39.7812 97.0469 40.1562C97.2552 40.5208 97.5573 40.8073 97.9531 41.0156C98.3594 41.224 98.849 41.3281 99.4219 41.3281C100.193 41.3281 100.865 41.1719 101.438 40.8594C102.021 40.5365 102.479 40.1458 102.812 39.6875C103.146 39.2188 103.323 38.776 103.344 38.3594L104.562 40.0312C104.438 40.4583 104.224 40.9167 103.922 41.4062C103.62 41.8958 103.224 42.3646 102.734 42.8125C102.255 43.25 101.677 43.6094 101 43.8906C100.333 44.1719 99.5625 44.3125 98.6875 44.3125C97.5833 44.3125 96.599 44.0938 95.7344 43.6562C94.8698 43.2083 94.1927 42.6094 93.7031 41.8594C93.2135 41.099 92.9688 40.2396 92.9688 39.2812C92.9688 38.3854 93.1354 37.5938 93.4688 36.9062C93.8125 36.2083 94.3125 35.625 94.9688 35.1562C95.6354 34.6875 96.4479 34.3333 97.4062 34.0938C98.3646 33.8438 99.4583 33.7188 100.688 33.7188H103.641ZM120.297 39.4219C120.297 39.0469 120.203 38.7083 120.016 38.4062C119.828 38.0938 119.469 37.8125 118.938 37.5625C118.417 37.3125 117.646 37.0833 116.625 36.875C115.729 36.6771 114.906 36.4427 114.156 36.1719C113.417 35.8906 112.781 35.5521 112.25 35.1562C111.719 34.7604 111.307 34.2917 111.016 33.75C110.724 33.2083 110.578 32.5833 110.578 31.875C110.578 31.1875 110.729 30.5365 111.031 29.9219C111.333 29.3073 111.766 28.7656 112.328 28.2969C112.891 27.8281 113.573 27.4583 114.375 27.1875C115.188 26.9167 116.094 26.7812 117.094 26.7812C118.51 26.7812 119.724 27.0208 120.734 27.5C121.755 27.9688 122.536 28.6094 123.078 29.4219C123.62 30.224 123.891 31.1302 123.891 32.1406H120.125C120.125 31.6927 120.01 31.276 119.781 30.8906C119.562 30.4948 119.229 30.1771 118.781 29.9375C118.333 29.6875 117.771 29.5625 117.094 29.5625C116.448 29.5625 115.911 29.6667 115.484 29.875C115.068 30.0729 114.755 30.3333 114.547 30.6562C114.349 30.9792 114.25 31.3333 114.25 31.7188C114.25 32 114.302 32.2552 114.406 32.4844C114.521 32.7031 114.708 32.9062 114.969 33.0938C115.229 33.2708 115.583 33.4375 116.031 33.5938C116.49 33.75 117.062 33.901 117.75 34.0469C119.042 34.3177 120.151 34.6667 121.078 35.0938C122.016 35.5104 122.734 36.0521 123.234 36.7188C123.734 37.375 123.984 38.2083 123.984 39.2188C123.984 39.9688 123.823 40.6562 123.5 41.2812C123.188 41.8958 122.729 42.4323 122.125 42.8906C121.521 43.3385 120.797 43.6875 119.953 43.9375C119.12 44.1875 118.182 44.3125 117.141 44.3125C115.609 44.3125 114.312 44.0417 113.25 43.5C112.188 42.9479 111.38 42.2448 110.828 41.3906C110.286 40.526 110.016 39.6302 110.016 38.7031H113.656C113.698 39.401 113.891 39.9583 114.234 40.375C114.589 40.7812 115.026 41.0781 115.547 41.2656C116.078 41.4427 116.625 41.5312 117.188 41.5312C117.865 41.5312 118.432 41.4427 118.891 41.2656C119.349 41.0781 119.698 40.8281 119.938 40.5156C120.177 40.1927 120.297 39.8281 120.297 39.4219Z" fill="white"/>
</svg>
