<svg width="441" height="48" viewBox="0 0 441 48" fill="none" xmlns="http://www.w3.org/2000/svg">
<path d="M17.0625 29.1562H4.90625V24.25H17.0625C19.4167 24.25 21.3229 23.875 22.7812 23.125C24.2396 22.375 25.3021 21.3333 25.9688 20C26.6562 18.6667 27 17.1458 27 15.4375C27 13.875 26.6562 12.4062 25.9688 11.0312C25.3021 9.65625 24.2396 8.55208 22.7812 7.71875C21.3229 6.86458 19.4167 6.4375 17.0625 6.4375H6.3125V47H0.28125V1.5H17.0625C20.5 1.5 23.4062 2.09375 25.7812 3.28125C28.1562 4.46875 29.9583 6.11458 31.1875 8.21875C32.4167 10.3021 33.0312 12.6875 33.0312 15.375C33.0312 18.2917 32.4167 20.7812 31.1875 22.8438C29.9583 24.9062 28.1562 26.4792 25.7812 27.5625C23.4062 28.625 20.5 29.1562 17.0625 29.1562ZM53.1875 5.53125L38.125 47H31.9688L49.3125 1.5H53.2812L53.1875 5.53125ZM65.8125 47L50.7188 5.53125L50.625 1.5H54.5938L72 47H65.8125ZM65.0312 30.1562V35.0938H39.4688V30.1562H65.0312ZM92.0312 25.1562H86.625V21.3125H91.8125C94.1042 21.3125 95.9583 20.9896 97.375 20.3438C98.7917 19.6979 99.8229 18.8021 100.469 17.6562C101.115 16.5104 101.438 15.1875 101.438 13.6875C101.438 12.25 101.083 10.9375 100.375 9.75C99.6667 8.54167 98.5729 7.58333 97.0938 6.875C95.6146 6.14583 93.7083 5.78125 91.375 5.78125C89.625 5.78125 88.0417 6.11458 86.625 6.78125C85.2083 7.42708 84.0833 8.33333 83.25 9.5C82.4167 10.6458 82 11.9688 82 13.4688H75.9688C75.9688 11.5312 76.375 9.79167 77.1875 8.25C78 6.6875 79.1146 5.36458 80.5312 4.28125C81.9479 3.17708 83.5833 2.33333 85.4375 1.75C87.3125 1.16667 89.2917 0.875 91.375 0.875C93.8125 0.875 96.0208 1.15625 98 1.71875C99.9792 2.26042 101.677 3.07292 103.094 4.15625C104.51 5.23958 105.594 6.58333 106.344 8.1875C107.094 9.79167 107.469 11.6562 107.469 13.7812C107.469 15.3438 107.104 16.8125 106.375 18.1875C105.646 19.5625 104.604 20.7708 103.25 21.8125C101.896 22.8542 100.271 23.6771 98.375 24.2812C96.4792 24.8646 94.3646 25.1562 92.0312 25.1562ZM86.625 22.5H92.0312C94.5938 22.5 96.875 22.7604 98.875 23.2812C100.875 23.8021 102.562 24.5625 103.938 25.5625C105.312 26.5625 106.354 27.8021 107.062 29.2812C107.792 30.7396 108.156 32.4167 108.156 34.3125C108.156 36.4375 107.74 38.3229 106.906 39.9688C106.094 41.6146 104.938 43.0104 103.438 44.1562C101.938 45.3021 100.156 46.1667 98.0938 46.75C96.0521 47.3333 93.8125 47.625 91.375 47.625C89.4167 47.625 87.4792 47.375 85.5625 46.875C83.6667 46.3542 81.9479 45.5625 80.4062 44.5C78.8646 43.4167 77.625 42.0417 76.6875 40.375C75.7708 38.7083 75.3125 36.7083 75.3125 34.375H81.3438C81.3438 35.8958 81.7604 37.2917 82.5938 38.5625C83.4479 39.8333 84.625 40.8542 86.125 41.625C87.625 42.375 89.375 42.75 91.375 42.75C93.6667 42.75 95.6042 42.3958 97.1875 41.6875C98.7917 40.9583 100.01 39.9688 100.844 38.7188C101.698 37.4479 102.125 36.0208 102.125 34.4375C102.125 33.0417 101.896 31.8333 101.438 30.8125C101 29.7708 100.344 28.9167 99.4688 28.25C98.6146 27.5833 97.5417 27.0938 96.25 26.7812C94.9792 26.4479 93.5 26.2812 91.8125 26.2812H86.625V22.5ZM132.875 29.1562H120.719V24.25H132.875C135.229 24.25 137.135 23.875 138.594 23.125C140.052 22.375 141.115 21.3333 141.781 20C142.469 18.6667 142.812 17.1458 142.812 15.4375C142.812 13.875 142.469 12.4062 141.781 11.0312C141.115 9.65625 140.052 8.55208 138.594 7.71875C137.135 6.86458 135.229 6.4375 132.875 6.4375H122.125V47H116.094V1.5H132.875C136.312 1.5 139.219 2.09375 141.594 3.28125C143.969 4.46875 145.771 6.11458 147 8.21875C148.229 10.3021 148.844 12.6875 148.844 15.375C148.844 18.2917 148.229 20.7812 147 22.8438C145.771 24.9062 143.969 26.4792 141.594 27.5625C139.219 28.625 136.312 29.1562 132.875 29.1562ZM169 5.53125L153.938 47H147.781L165.125 1.5H169.094L169 5.53125ZM181.625 47L166.531 5.53125L166.438 1.5H170.406L187.812 47H181.625ZM180.844 30.1562V35.0938H155.281V30.1562H180.844ZM221.656 1.5V6.4375H199.719V47H193.719V1.5H221.656ZM198.312 20.0312H210.719C214.052 20.0312 216.865 20.5938 219.156 21.7188C221.448 22.8229 223.188 24.375 224.375 26.375C225.562 28.375 226.156 30.7188 226.156 33.4062C226.156 35.4062 225.823 37.2396 225.156 38.9062C224.49 40.5521 223.5 41.9896 222.188 43.2188C220.875 44.4271 219.26 45.3646 217.344 46.0312C215.427 46.6771 213.219 47 210.719 47H193.719V1.5H199.75V42.0938H210.719C212.948 42.0938 214.75 41.6875 216.125 40.875C217.521 40.0417 218.542 38.9583 219.188 37.625C219.833 36.2917 220.156 34.8646 220.156 33.3438C220.156 31.8229 219.833 30.4271 219.188 29.1562C218.542 27.8854 217.521 26.875 216.125 26.125C214.75 25.3542 212.948 24.9688 210.719 24.9688H198.312V20.0312ZM269.312 22.8125V25.6875C269.312 29.1042 268.885 32.1667 268.031 34.875C267.177 37.5833 265.948 39.8854 264.344 41.7812C262.74 43.6771 260.812 45.125 258.562 46.125C256.333 47.125 253.833 47.625 251.062 47.625C248.375 47.625 245.906 47.125 243.656 46.125C241.427 45.125 239.49 43.6771 237.844 41.7812C236.219 39.8854 234.958 37.5833 234.062 34.875C233.167 32.1667 232.719 29.1042 232.719 25.6875V22.8125C232.719 19.3958 233.156 16.3438 234.031 13.6562C234.927 10.9479 236.188 8.64583 237.812 6.75C239.438 4.83333 241.365 3.375 243.594 2.375C245.844 1.375 248.312 0.875 251 0.875C253.771 0.875 256.271 1.375 258.5 2.375C260.75 3.375 262.677 4.83333 264.281 6.75C265.906 8.64583 267.146 10.9479 268 13.6562C268.875 16.3438 269.312 19.3958 269.312 22.8125ZM263.344 25.6875V22.75C263.344 20.0417 263.062 17.6458 262.5 15.5625C261.958 13.4792 261.156 11.7292 260.094 10.3125C259.031 8.89583 257.729 7.82292 256.188 7.09375C254.667 6.36458 252.938 6 251 6C249.125 6 247.427 6.36458 245.906 7.09375C244.406 7.82292 243.115 8.89583 242.031 10.3125C240.969 11.7292 240.146 13.4792 239.562 15.5625C238.979 17.6458 238.688 20.0417 238.688 22.75V25.6875C238.688 28.4167 238.979 30.8333 239.562 32.9375C240.146 35.0208 240.979 36.7812 242.062 38.2188C243.167 39.6354 244.469 40.7083 245.969 41.4375C247.49 42.1667 249.188 42.5312 251.062 42.5312C253.021 42.5312 254.76 42.1667 256.281 41.4375C257.802 40.7083 259.083 39.6354 260.125 38.2188C261.188 36.7812 261.99 35.0208 262.531 32.9375C263.073 30.8333 263.344 28.4167 263.344 25.6875ZM294.281 1.5V47H288.344V1.5H294.281ZM308.906 1.5V6.4375H273.75V1.5H308.906ZM315.094 1.5H321.125V15.7188C321.125 18.0729 321.469 19.9167 322.156 21.25C322.844 22.5833 323.885 23.5208 325.281 24.0625C326.677 24.6042 328.417 24.875 330.5 24.875C331.75 24.875 332.958 24.8229 334.125 24.7188C335.312 24.6146 336.469 24.4688 337.594 24.2812C338.719 24.0938 339.823 23.8646 340.906 23.5938C342.01 23.3229 343.094 23.0312 344.156 22.7188V27.6562C343.135 27.9688 342.115 28.2604 341.094 28.5312C340.094 28.8021 339.052 29.0312 337.969 29.2188C336.906 29.4062 335.76 29.5521 334.531 29.6562C333.323 29.7604 331.979 29.8125 330.5 29.8125C327.292 29.8125 324.531 29.3542 322.219 28.4375C319.927 27.5 318.167 26 316.938 23.9375C315.708 21.875 315.094 19.1354 315.094 15.7188V1.5ZM342.625 1.5H348.656V47H342.625V1.5ZM365.75 36.5625L388.156 1.5H394.188V47H388.156V11.9062L365.75 47H359.75V1.5H365.75V36.5625ZM411.469 1.5V47H405.438V1.5H411.469ZM439.5 1.5L419.75 26.5312H409.062L408.125 21.5312H416.156L432.031 1.5H439.5ZM433.438 47L416.344 25.75L419.719 20.4688L440.812 47H433.438Z" fill="white"/>
</svg>
